<svg xmlns="http://www.w3.org/2000/svg" width="21" height="20" viewBox="0 0 21 20" fill="none">
    <path d="M10.4474 7.3495C9.01891 7.3495 7.85319 8.51199 7.85319 9.93648C7.85319 11.361 9.01891 12.5235 10.4474 12.5235C11.8758 12.5235 13.0415 11.361 13.0415 9.93648C13.0415 8.51199 11.8758 7.3495 10.4474 7.3495ZM18.2279 9.93648C18.2279 8.86521 18.2377 7.80363 18.1773 6.73429C18.117 5.49223 17.8329 4.38989 16.9221 3.48164C16.0094 2.57144 14.9059 2.29003 13.6604 2.22987C12.5861 2.16971 11.5216 2.17941 10.4493 2.17941C9.37505 2.17941 8.31053 2.16971 7.23822 2.22987C5.9927 2.29003 4.88731 2.57338 3.97653 3.48164C3.0638 4.39184 2.78161 5.49223 2.72128 6.73429C2.66095 7.80557 2.67068 8.86715 2.67068 9.93648C2.67068 11.0058 2.66095 12.0693 2.72128 13.1387C2.78161 14.3807 3.06575 15.4831 3.97653 16.3913C4.88926 17.3015 5.9927 17.5829 7.23822 17.6431C8.31247 17.7033 9.377 17.6936 10.4493 17.6936C11.5236 17.6936 12.5881 17.7033 13.6604 17.6431C14.9059 17.5829 16.0113 17.2996 16.9221 16.3913C17.8348 15.4811 18.117 14.3807 18.1773 13.1387C18.2396 12.0693 18.2279 11.0078 18.2279 9.93648ZM10.4474 13.9169C8.23852 13.9169 6.45588 12.1392 6.45588 9.93648C6.45588 7.73376 8.23852 5.95606 10.4474 5.95606C12.6562 5.95606 14.4388 7.73376 14.4388 9.93648C14.4388 12.1392 12.6562 13.9169 10.4474 13.9169ZM14.6023 6.72265C14.0866 6.72265 13.6701 6.30733 13.6701 5.79304C13.6701 5.27875 14.0866 4.86343 14.6023 4.86343C15.118 4.86343 15.5345 5.27875 15.5345 5.79304C15.5347 5.91516 15.5107 6.03611 15.4639 6.14897C15.4171 6.26182 15.3484 6.36436 15.2618 6.45071C15.1752 6.53706 15.0724 6.60553 14.9592 6.6522C14.8461 6.69886 14.7248 6.7228 14.6023 6.72265Z" fill="#F3F6FF"/>
</svg>