<svg xmlns="http://www.w3.org/2000/svg" width="21" height="20" viewBox="0 0 21 20" fill="none">
    <path d="M18.2877 4.93536C17.6922 5.19154 17.0441 5.37591 16.3766 5.44771C17.0696 5.03713 17.5886 4.38847 17.8362 3.62343C17.1859 4.00923 16.4734 4.27975 15.7305 4.42301C15.42 4.09198 15.0444 3.82826 14.6272 3.64829C14.2101 3.46832 13.7602 3.37596 13.3056 3.37696C11.4665 3.37696 9.9875 4.86356 9.9875 6.68784C9.9875 6.94401 10.0186 7.20019 10.0692 7.44666C7.31548 7.30305 4.85949 5.99112 3.22669 3.98247C2.92918 4.48922 2.77328 5.06622 2.7752 5.65343C2.7752 6.80234 3.36098 7.8154 4.25424 8.4112C3.72783 8.39053 3.21374 8.24624 2.75379 7.99006V8.03082C2.75379 9.63968 3.89421 10.973 5.41413 11.2796C5.12875 11.3535 4.83517 11.3913 4.54032 11.3922C4.3243 11.3922 4.11996 11.3708 3.91367 11.3417C4.33403 12.6536 5.55814 13.6065 7.01578 13.6376C5.87536 14.5284 4.44691 15.0524 2.89585 15.0524C2.61756 15.0524 2.36067 15.0427 2.09406 15.0116C3.56532 15.9529 5.31098 16.4963 7.19093 16.4963C13.294 16.4963 16.6335 11.4543 16.6335 7.07792C16.6335 6.93431 16.6335 6.7907 16.6238 6.64708C17.2699 6.17549 17.8362 5.59133 18.2877 4.93536Z" fill="#F3F6FF"/>
</svg>