<svg xmlns="http://www.w3.org/2000/svg" width="21" height="20" viewBox="0 0 21 20" fill="none">
    <g clip-path="url(#clip0_21_327)">
        <path d="M8.95921 0H7.83824L7.09094 2.85675L6.34363 0H5.09811C5.34722 0.745238 5.59632 1.36627 5.84542 2.11151C6.21908 3.10516 6.46818 3.9746 6.46818 4.47143V7.45238H7.58914V4.47143L8.95921 0ZM11.9484 5.58929V3.72619C11.9484 3.10516 11.8239 2.73254 11.5748 2.35992C11.3257 1.9873 10.952 1.8631 10.4538 1.8631C9.95562 1.8631 9.58196 2.11151 9.33286 2.48413C9.08376 2.73254 8.95921 3.10516 8.95921 3.72619V5.71349C8.95921 6.33452 9.08376 6.70714 9.33286 6.95556C9.58196 7.32818 9.95562 7.45238 10.4538 7.45238C10.952 7.45238 11.3257 7.20397 11.5748 6.83135C11.8239 6.70714 11.9484 6.21032 11.9484 5.58929ZM10.952 5.8377C10.952 6.33452 10.8275 6.58294 10.4538 6.58294C10.0802 6.58294 9.95562 6.33452 9.95562 5.8377V3.47778C9.95562 2.98095 10.0802 2.73254 10.4538 2.73254C10.8275 2.73254 10.952 2.98095 10.952 3.47778V5.8377ZM15.685 7.45238V1.8631H14.6886V6.08611C14.4395 6.45873 14.3149 6.58294 14.0658 6.58294C13.9413 6.58294 13.8167 6.45873 13.8167 6.33452V1.8631H12.8203V6.21032C12.8203 6.58294 12.8203 6.83135 12.9449 7.07976C12.9449 7.32818 13.194 7.45238 13.5676 7.45238C13.9413 7.45238 14.3149 7.20397 14.6886 6.83135V7.45238H15.685Z" fill="#F3F6FF"/>
        <path d="M16.1828 13.0416C15.8094 13.0416 15.6849 13.29 15.6849 13.7869V14.2837H16.6806V13.7869C16.6806 13.29 16.5562 13.0416 16.1828 13.0416Z" fill="#F3F6FF"/>
        <path d="M12.5709 13.0416C12.4465 13.0416 12.1976 13.1658 12.0731 13.29V16.6436C12.1976 16.7678 12.4465 16.892 12.5709 16.892C12.8199 16.892 12.9443 16.6436 12.9443 16.1468V13.7869C12.9443 13.29 12.8199 13.0416 12.5709 13.0416Z" fill="#F3F6FF"/>
        <path d="M18.6743 10.3091C18.4252 9.4397 17.6779 8.69446 16.9306 8.69446C14.9377 8.44604 12.8204 8.44604 10.703 8.44604C8.58562 8.44604 6.5928 8.44604 4.47543 8.69446C3.72812 8.69446 2.98081 9.4397 2.73171 10.3091C2.48261 11.5512 2.4826 12.9175 2.4826 14.1595C2.4826 15.4016 2.48261 16.7679 2.73171 18.0099C2.98081 18.8794 3.60357 19.5004 4.47543 19.6246C6.5928 19.873 8.58562 19.873 10.703 19.873C12.8204 19.873 14.8132 19.873 16.9306 19.6246C17.8024 19.5004 18.5497 18.8794 18.6743 18.0099C18.9234 16.7679 18.9234 15.4016 18.9234 14.1595C18.9234 12.9175 18.9234 11.5512 18.6743 10.3091ZM7.21556 11.427H5.97004V17.7615H4.84908V11.427H3.72812V10.3091H7.21556V11.427ZM10.2048 17.7615H9.20838V17.1405C8.83473 17.6373 8.46107 17.7615 8.08742 17.7615C7.71376 17.7615 7.58921 17.6373 7.46466 17.3889C7.46466 17.2647 7.34011 17.0163 7.34011 16.5195V12.1722H8.33652V16.5195C8.33652 16.6437 8.46107 16.7679 8.58562 16.7679C8.83473 16.7679 8.95928 16.6437 9.20838 16.271V12.1722H10.2048V17.7615ZM13.9413 16.0226C13.9413 16.5195 13.9413 16.8921 13.8168 17.1405C13.6922 17.5131 13.4431 17.7615 13.0695 17.7615C12.6958 17.7615 12.3222 17.5131 12.0731 17.1405V17.6373H11.0767V10.3091H12.0731V12.6691C12.4467 12.2964 12.6958 12.048 13.0695 12.048C13.4431 12.048 13.6922 12.2964 13.8168 12.6691C13.9413 12.9175 13.9413 13.2901 13.9413 13.7869V16.0226ZM17.6779 15.1532H15.6851V16.1468C15.6851 16.6437 15.8096 16.8921 16.1833 16.8921C16.4324 16.8921 16.5569 16.7679 16.6815 16.5195V15.8984H17.6779V16.6437C17.6779 16.8921 17.5533 17.0163 17.4288 17.2647C17.1797 17.6373 16.806 17.8857 16.1833 17.8857C15.6851 17.8857 15.3114 17.6373 14.9377 17.2647C14.6886 17.0163 14.5641 16.5195 14.5641 16.0226V14.1595C14.5641 13.5385 14.6886 13.1659 14.8132 12.9175C15.0623 12.5449 15.436 12.2964 16.0587 12.2964C16.5569 12.2964 16.9306 12.5449 17.1797 12.9175C17.4288 13.1659 17.4288 13.6627 17.4288 14.1595V15.1532H17.6779Z" fill="#F3F6FF"/>
    </g>
    <defs>
        <clipPath id="clip0_21_327">
            <rect width="19.9282" height="19.873" fill="white" transform="translate(0.738831)"/>
        </clipPath>
    </defs>
</svg>