<svg xmlns="http://www.w3.org/2000/svg" width="34" height="25" viewBox="0 0 34 25" fill="none">
    <path d="M32.8667 25H1.13333C0.832755 25 0.544487 24.8354 0.331946 24.5424C0.119404 24.2493 0 23.8519 0 23.4375C0 23.0231 0.119404 22.6257 0.331946 22.3326C0.544487 22.0396 0.832755 21.875 1.13333 21.875H32.8667C33.1672 21.875 33.4555 22.0396 33.6681 22.3326C33.8806 22.6257 34 23.0231 34 23.4375C34 23.8519 33.8806 24.2493 33.6681 24.5424C33.4555 24.8354 33.1672 25 32.8667 25Z" fill="#050019"/>
    <path d="M32.8667 14.0625H1.13333C0.832755 14.0625 0.544487 13.8979 0.331946 13.6049C0.119404 13.3118 0 12.9144 0 12.5C0 12.0856 0.119404 11.6882 0.331946 11.3951C0.544487 11.1021 0.832755 10.9375 1.13333 10.9375H32.8667C33.1672 10.9375 33.4555 11.1021 33.6681 11.3951C33.8806 11.6882 34 12.0856 34 12.5C34 12.9144 33.8806 13.3118 33.6681 13.6049C33.4555 13.8979 33.1672 14.0625 32.8667 14.0625Z" fill="#050019"/>
    <path d="M32.8667 3.125H1.13333C0.832755 3.125 0.544487 2.96038 0.331946 2.66735C0.119404 2.37433 0 1.9769 0 1.5625C0 1.1481 0.119404 0.750672 0.331946 0.457646C0.544487 0.16462 0.832755 0 1.13333 0H32.8667C33.1672 0 33.4555 0.16462 33.6681 0.457646C33.8806 0.750672 34 1.1481 34 1.5625C34 1.9769 33.8806 2.37433 33.6681 2.66735C33.4555 2.96038 33.1672 3.125 32.8667 3.125Z" fill="#050019"/>
</svg>